PathFileType	4	(x/y/z)	S01_P20_T17
DataRate	CameraRate	NumFrames	NumMarkers	Units	OrigDataRate	OrigDataStartFrame	OrigNumFrames
240	240	9	51	mm	240	262	418
Frame#	Time	Sternum			R.Acromium			L.Acromium			Top.Head			R.ASIS			L.ASIS			R.PSIS			L.PSIS			R.Great.Tro			L.Great.Tro			R.Iliac.Crest			L.Iliac.Crest			V.Sacral			R.Thigh.Upper.Post			R.Thigh.Lower.Ant			R.Thigh.Lower.Post			R.Thigh.Upper.Ant			R.Knee.Lat			R.Knee.Med			R.Shank.Upper.Post			R.Shank.Lower.Ant			R.Shank.Lower.Post			R.Shank.Upper.Ant			R.Ankle.Lat			R.Ankle.Med			R.Heel.Upper			R.Heel.Med			R.Heel.Lat			R.Toe.Lat			R.Toe.Med			R.Toe.Tip			L.Thigh.Upper.Post			L.Thigh.Lower.Ant			L.Thigh.Lower.Post			L.Thigh.Upper.Ant			L.Knee.Lat			L.Knee.Med			L.Shank.Upper.Post			L.Shank.Lower.Ant			L.Shank.Lower.Post			L.Shank.Upper.Ant			L.Ankle.Lat			L.Ankle.Med			L.Heel.Upper			L.Heel.Med			L.Heel.Lat			L.Toe.Lat			L.Toe.Med			L.Toe.Tip			Cervical.Spine			Back			
		X1	Y1	Z1	X2	Y2	Z2	X3	Y3	Z3	X4	Y4	Z4	X5	Y5	Z5	X6	Y6	Z6	X7	Y7	Z7	X8	Y8	Z8	X9	Y9	Z9	X10	Y10	Z10	X11	Y11	Z11	X12	Y12	Z12	X13	Y13	Z13	X14	Y14	Z14	X15	Y15	Z15	X16	Y16	Z16	X17	Y17	Z17	X18	Y18	Z18	X19	Y19	Z19	X20	Y20	Z20	X21	Y21	Z21	X22	Y22	Z22	X23	Y23	Z23	X24	Y24	Z24	X25	Y25	Z25	X26	Y26	Z26	X27	Y27	Z27	X28	Y28	Z28	X29	Y29	Z29	X30	Y30	Z30	X31	Y31	Z31	X32	Y32	Z32	X33	Y33	Z33	X34	Y34	Z34	X35	Y35	Z35	X36	Y36	Z36	X37	Y37	Z37	X38	Y38	Z38	X39	Y39	Z39	X40	Y40	Z40	X41	Y41	Z41	X42	Y42	Z42	X43	Y43	Z43	X44	Y44	Z44	X45	Y45	Z45	X46	Y46	Z46	X47	Y47	Z47	X48	Y48	Z48	X49	Y49	Z49	X50	Y50	Z50	X51	Y51	Z51	

262	1.0875	191.46	1261.1	267.79	85.995	1517.4	442.07	60.195	1530.2	113.48	63.549	1842.9	279.31	133.78	1011.7	431.81	150.25	1017.1	165.07	-95.789	1059.2	326.6	-92.203	1056.6	223.03	51.111	961.22	507.81	54.337	967.78	81.548	47.739	1114.6	490.44	41.26	1095.4	84.354	-106.66	1020.7	272.15	54.155	656.03	508.05	130.02	587.44	503.2	63.955	567.42	496.63	123.96	677.73	512.12	81.357	504.68	498.01	114.33	495.26	355.93	-64.133	432.82	503.73	-83.097	332.2	462.84	-118.61	390.7	488.46	-30.201	378.94	484.91	-269.56	262.93	440.21	-233.32	235.61	352.8	-322.56	298.12	370.26	-334.55	270.19	338.32	-349.17	274.21	401.44	-270.22	110.71	477.12	-226.23	88.34	362.72	-181.51	52.038	425.76	93.708	680.46	111.56	193.48	633.28	111.95	125.89	597.36	132.26	152.27	717.13	90.91	198.73	528.79	127.34	219.6	543.29	265	151.21	392.63	108.55	209.73	302.09	137.22	152.16	311.43	112.03	211.38	378.72	128.45	123.86	104.72	152.08	151.38	115.94	247.77	54.644	72.413	199.25	65.182	47.624	233.34	62.486	45.125	171.01	270.23	40.426	131	298.36	46.148	253.71	358.85	60.881	200.71	-17.594	1584.8	285.45	-111.68	1264.9	301.53
263	1.0917	196.69	1262.1	267.65	91.115	1518.7	441.41	65.996	1531.1	112.76	68.92	1844	278.06	138.82	1012.9	431.71	155.54	1017.9	164.94	-90.637	1060.3	326.18	-86.954	1057.8	222.57	56.269	962.55	507.73	59.614	968.72	81.37	52.394	1115.7	490.21	46.641	1096.3	83.974	-101.53	1022	271.69	62.904	657.33	508.33	139.55	589.58	503.92	73.737	568.8	496.97	132.43	679.81	512.69	91.926	506.49	498.49	125.37	497.27	356.34	-53.565	435.25	503.61	-72.85	334.74	462.58	-108.21	393.41	488.17	-19.804	381.21	484.88	-259.64	266.85	439.21	-223.09	238.62	352.09	-311.92	301.96	368.61	-324.02	273.83	336.88	-338.96	278.55	399.87	-261.58	114.93	477.26	-217.05	91.014	363.42	-173.11	54.322	427.06	96.889	681.18	111.17	196.3	633.33	111.71	128.42	597.87	131.89	155.67	717.5	90.716	200.59	528.68	127.08	221.52	542.99	264.71	152.31	392.62	108.3	210.51	301.88	136.96	152.96	311.42	111.83	212.45	378.49	128.16	123.91	104.79	152.02	151.48	116.06	247.66	54.664	72.475	199.19	65.217	47.713	233.29	62.507	45.176	170.97	270.27	40.393	130.93	298.38	46.218	253.66	358.87	60.857	200.64	-12.157	1585.9	284.46	-106.38	1266.3	300.85
264	1.0958	201.91	1263.2	267.57	96.222	1520	440.79	71.779	1532	112.08	74.301	1845.2	276.85	143.87	1014.2	431.63	160.81	1018.8	164.82	-85.49	1061.5	325.75	-81.721	1059	222.12	61.413	963.96	507.66	64.876	969.67	81.201	57.038	1116.9	490.04	52.024	1097.2	83.609	-96.429	1023.2	271.24	71.629	658.75	508.57	149.05	591.86	504.58	83.483	570.32	497.26	140.87	682	513.21	102.42	508.44	498.93	136.29	499.41	356.69	-43.047	437.7	503.41	-62.525	337.25	462.31	-97.797	396.07	487.82	-9.3939	383.53	484.82	-249.55	270.48	438.17	-212.66	241.44	351.35	-301.2	305.38	366.95	-313.34	277.02	335.43	-328.6	282.41	398.29	-252.42	118.91	477.37	-207.36	93.573	364.07	-164.08	56.682	428.28	99.98	681.94	110.8	199.01	633.39	111.49	130.85	598.41	131.53	158.99	717.89	90.532	202.32	528.6	126.83	223.34	542.7	264.42	153.31	392.62	108.06	211.22	301.7	136.7	153.69	311.42	111.64	213.42	378.28	127.86	123.97	104.86	151.95	151.58	116.19	247.55	54.683	72.54	199.13	65.25	47.807	233.25	62.528	45.23	170.92	270.31	40.358	130.87	298.4	46.295	253.6	358.88	60.843	200.57	-6.7228	1587.1	283.52	-101.1	1267.7	300.2
265	1.1	207.12	1264.3	267.53	101.32	1521.4	440.22	77.544	1533	111.44	79.692	1846.4	275.68	148.93	1015.6	431.57	166.08	1019.7	164.74	-80.347	1062.8	325.33	-76.502	1060.3	221.67	66.548	965.45	507.62	70.117	970.64	81.04	61.681	1118.1	489.9	57.411	1098.1	83.263	-91.34	1024.6	270.8	80.327	660.29	508.78	158.5	594.25	505.16	93.192	571.96	497.52	149.28	684.31	513.67	112.82	510.5	499.33	147.12	501.67	356.99	-32.583	440.16	503.14	-52.127	339.72	462.03	-87.388	398.67	487.41	1.0291	385.88	484.74	-239.29	273.79	437.12	-202.04	244.04	350.6	-290.42	308.38	365.31	-302.53	279.77	334	-318.1	285.77	396.72	-242.74	122.61	477.44	-197.18	95.998	364.64	-154.44	59.073	429.4	102.98	682.72	110.45	201.63	633.47	111.29	133.18	598.98	131.19	162.24	718.3	90.355	203.95	528.54	126.58	225.05	542.43	264.14	154.21	392.64	107.82	211.85	301.54	136.45	154.34	311.44	111.46	214.3	378.11	127.57	124.02	104.94	151.87	151.68	116.34	247.44	54.699	72.61	199.07	65.28	47.906	233.2	62.55	45.29	170.88	270.34	40.32	130.81	298.41	46.377	253.54	358.9	60.836	200.5	-1.2935	1588.3	282.62	-95.841	1269.1	299.55
266	1.1042	212.33	1265.4	267.53	106.4	1522.8	439.69	83.289	1534	110.84	85.093	1847.6	274.55	154	1017	431.53	171.33	1020.6	164.67	-75.204	1064.1	324.91	-71.294	1061.7	221.24	71.678	967.01	507.58	75.331	971.62	80.887	66.332	1119.3	489.78	62.803	1099.1	82.938	-86.263	1025.9	270.38	88.998	661.93	508.97	167.9	596.75	505.68	102.86	573.72	497.74	157.65	686.71	514.08	123.15	512.68	499.68	157.83	504.05	357.25	-22.168	442.61	502.8	-41.656	342.14	461.76	-76.977	401.19	486.97	11.466	388.26	484.64	-228.86	276.76	436.07	-191.22	246.41	349.83	-279.56	310.96	363.7	-291.61	282.09	332.6	-307.46	288.65	395.19	-232.58	125.99	477.46	-186.52	98.27	365.12	-144.22	61.451	430.39	105.9	683.52	110.12	204.16	633.57	111.09	135.42	599.58	130.86	165.4	718.72	90.185	205.46	528.51	126.33	226.67	542.17	263.86	155.01	392.69	107.6	212.4	301.43	136.19	154.91	311.49	111.29	215.08	377.98	127.28	124.07	105.02	151.79	151.78	116.48	247.32	54.713	72.683	199.01	65.308	48.011	233.16	62.573	45.353	170.83	270.37	40.28	130.75	298.43	46.463	253.49	358.92	60.833	200.42	4.1306	1589.6	281.76	-90.609	1270.5	298.91
267	1.1083	217.53	1266.6	267.56	111.46	1524.2	439.19	89.013	1535.1	110.28	90.504	1848.8	273.46	159.08	1018.5	431.49	176.57	1021.5	164.61	-70.061	1065.5	324.51	-66.096	1063	220.82	76.807	968.63	507.57	80.513	972.61	80.742	70.999	1120.6	489.69	68.2	1100.1	82.635	-81.198	1027.3	269.97	97.641	663.67	509.13	177.26	599.36	506.13	112.49	575.59	497.93	165.99	689.19	514.45	133.4	514.94	499.99	168.44	506.53	357.46	-11.798	445.04	502.4	-31.112	344.48	461.48	-66.564	403.62	486.5	21.918	390.63	484.52	-218.27	279.38	435.03	-180.24	248.56	349.06	-268.65	313.12	362.16	-280.57	284	331.26	-296.68	291.04	393.72	-221.94	129.02	477.42	-175.43	100.38	365.49	-133.43	63.775	431.22	108.73	684.33	109.83	206.58	633.69	110.9	137.57	600.2	130.56	168.5	719.15	90.02	206.87	528.51	126.09	228.19	541.93	263.58	155.73	392.75	107.4	212.89	301.34	135.92	155.4	311.55	111.12	215.79	377.87	127	124.12	105.11	151.7	151.88	116.64	247.21	54.726	72.761	198.96	65.33	48.121	233.11	62.596	45.422	170.79	270.4	40.238	130.69	298.44	46.551	253.43	358.93	60.835	200.35	9.5487	1590.9	280.94	-85.398	1272	298.28
268	1.1125	222.73	1267.8	267.63	116.52	1525.7	438.73	94.716	1536.2	109.75	95.926	1850.1	272.42	164.16	1020.1	431.46	181.8	1022.4	164.57	-64.914	1066.9	324.12	-60.907	1064.4	220.42	81.94	970.31	507.56	85.66	973.61	80.604	75.687	1121.9	489.62	73.602	1101.2	82.356	-76.142	1028.8	269.58	106.25	665.49	509.27	186.57	602.05	506.51	122.08	577.56	498.09	174.29	691.76	514.76	143.56	517.29	500.25	178.95	509.09	357.64	-1.4691	447.42	501.96	-20.496	346.75	461.21	-56.144	405.93	486.01	32.388	392.99	484.39	-207.51	281.63	434.01	-169.08	250.48	348.29	-257.67	314.87	360.7	-269.43	285.51	329.97	-285.78	292.95	392.33	-210.85	131.69	477.31	-163.91	102.3	365.73	-122.11	66.01	431.88	111.48	685.17	109.55	208.92	633.81	110.72	139.63	600.85	130.28	171.51	719.58	89.861	208.19	528.53	125.86	229.63	541.71	263.3	156.35	392.83	107.21	213.31	301.28	135.66	155.83	311.64	110.97	216.41	377.79	126.72	124.17	105.2	151.62	151.98	116.8	247.09	54.735	72.843	198.9	65.348	48.236	233.07	62.62	45.495	170.75	270.43	40.195	130.64	298.45	46.641	253.37	358.94	60.84	200.28	14.96	1592.2	280.16	-80.204	1273.4	297.65
269	1.1167	227.92	1269.1	267.72	121.55	1527.1	438.3	100.4	1537.3	109.25	101.36	1851.4	271.43	169.25	1021.7	431.43	187.02	1023.4	164.53	-59.763	1068.3	323.74	-55.726	1065.8	220.04	87.079	972.05	507.55	90.768	974.6	80.473	80.399	1123.3	489.55	79.009	1102.3	82.102	-71.091	1030.3	269.21	114.83	667.39	509.39	195.83	604.81	506.82	131.61	579.61	498.23	182.56	694.39	515.03	153.65	519.71	500.48	189.35	511.73	357.77	8.8265	449.74	501.49	-9.8076	348.91	460.95	-45.714	408.13	485.51	42.88	395.31	484.25	-196.59	283.52	433.02	-157.77	252.16	347.53	-246.63	316.23	359.34	-258.19	286.63	328.77	-274.75	294.38	391.03	-199.34	133.96	477.12	-151.99	104.03	365.83	-110.28	68.124	432.33	114.16	686.01	109.31	211.17	633.95	110.55	141.61	601.52	130.02	174.46	720.02	89.709	209.41	528.57	125.64	230.98	541.5	263.04	156.9	392.94	107.04	213.66	301.25	135.39	156.19	311.75	110.83	216.96	377.75	126.43	124.22	105.3	151.52	152.09	116.96	246.97	54.743	72.929	198.84	65.361	48.356	233.02	62.645	45.573	170.71	270.46	40.151	130.58	298.45	46.733	253.31	358.96	60.848	200.21	20.364	1593.5	279.41	-75.026	1274.9	297.03
270	1.1208	233.11	1270.4	267.83	126.57	1528.6	437.91	106.06	1538.5	108.79	106.8	1852.7	270.49	174.33	1023.3	431.39	192.23	1024.4	164.5	-54.608	1069.8	323.38	-50.549	1067.3	219.68	92.228	973.83	507.56	95.838	975.6	80.35	85.139	1124.8	489.48	84.42	1103.5	81.874	-66.044	1031.8	268.87	123.38	669.35	509.5	205.04	607.63	507.07	141.1	581.74	498.34	190.8	697.07	515.25	163.66	522.19	500.67	199.64	514.44	357.87	19.095	451.97	501	0.95304	350.97	460.69	-35.27	410.18	485.02	53.396	397.59	484.1	-185.51	285.04	432.07	-146.31	253.61	346.78	-235.53	317.19	358.09	-246.86	287.37	327.65	-263.6	295.34	389.84	-187.41	135.83	476.84	-139.7	105.57	365.79	-97.974	70.092	432.59	116.75	686.87	109.09	213.33	634.1	110.39	143.5	602.21	129.79	177.33	720.45	89.565	210.55	528.63	125.42	232.26	541.31	262.77	157.36	393.06	106.9	213.95	301.25	135.12	156.48	311.88	110.71	217.44	377.73	126.16	124.26	105.41	151.43	152.19	117.13	246.86	54.748	73.02	198.79	65.367	48.48	232.98	62.669	45.656	170.67	270.48	40.106	130.52	298.46	46.825	253.25	358.97	60.857	200.13	25.76	1594.9	278.71	-69.859	1276.4	296.41
